# xmcd
#
# Track frame offsets:
# 150
# 17503
# 31546
# 41311
# 51931
# 64659
# 78819
# 90978
# 105176
# 119591
# 128914
# 145227
# 160325
# 171403
# 185893
# 195133
#
# Disc length: 2796 seconds
#
#
# Revision: 0
# Processed by: cddbd v1.5.2PL0 Copyright (c) Steve Scherf et al.
# Submitted via: FreeRIP 2.945 
#
DISCID=c20aea10
DTITLE=Pedro Bento and Zé Da Estrada - Dose Dupla De Sucessos
DYEAR=2006
DGENRE=Sertanejo
TTITLE0=Mágoa DFe Boiadeiro - PB.& Z.DA ESTRADA de N.Basilio e Indio Vago
TTITLE1=Seresteiro Da Lua - PB.& Z.DA ESTRADA de PB. e Cafezinho
TTITLE2=Galopeira - PB.& Z.DA ESTRADA Vs.Luiz De Castro
TTITLE3=Florzinha Do Campo - PB.& Z.DA ESTRADA de L.Canhoto e Campanha
TTITLE4=Ilusão Da Vida - PB.& Z.DA ESTRADA de P.Amorim e T.Vieira
TTITLE5=Garçom - PB.& Z.DA ESTRADA de PB. e Celinho
TTITLE6=Irmão Do Ferreirinha - PB.& Z.DA ESTRADA de Carreirinho e T.Vieira
TTITLE7=Morte Do Carreiro - PB.& Z.DA ESTRADA de Zé Carreiro e Carreirinho
TTITLE8=Fim Do Zé Carreiro - PB.& Z.DA ESTRADA de Serrinha e Ado Benatti
TTITLE9=Ranchinho De Taquara - PB.& Z.DA ESTRADA de Carreirinho
TTITLE10=Santa Cruz Da Serra - PB.& Z.DA ESTRADA de B.Seviero e Biguá
TTITLE11=Minha História De Amor - PB.& Z.DA ESTRADA de Carreirinho e Amado Rosa
TTITLE12=Esperança Perdida - PB.& Z.DA ESTRADA de de L.Canhoto
TTITLE13=Recordação - PB.& Z.DA ESTRADA de Goiá e Nenete
TTITLE14=Mariposa Do Amor - PB.& Z.DA ESTRADA de Antonio B.de Oliveira e Carlos Paviani
TTITLE15=Tormento De Mulher - PB.& Z.DA ESTRADA de Wilson P.Rocha e J.Gomes
EXTD=xxxx
EXTT0=
EXTT1=
EXTT2=
EXTT3=
EXTT4=
EXTT5=
EXTT6=
EXTT7=
EXTT8=
EXTT9=
EXTT10=
EXTT11=
EXTT12=
EXTT13=
EXTT14=
EXTT15=
PLAYORDER=
